<?xml version="1.0" encoding="UTF-8" standalone="no"?>
<!-- Created with Inkscape (http://www.inkscape.org/) -->

<svg
   xmlns:dc="http://purl.org/dc/elements/1.1/"
   xmlns:cc="http://creativecommons.org/ns#"
   xmlns:rdf="http://www.w3.org/1999/02/22-rdf-syntax-ns#"
   xmlns:svg="http://www.w3.org/2000/svg"
   xmlns="http://www.w3.org/2000/svg"
   xmlns:sodipodi="http://sodipodi.sourceforge.net/DTD/sodipodi-0.dtd"
   xmlns:inkscape="http://www.inkscape.org/namespaces/inkscape"
   id="svg3419"
   sodipodi:docname="gear.svg"
   version="1.1"
   inkscape:version="0.48.4 r9939"
   width="100%"
   height="100%">
  <defs
     id="defs8" />
  <sodipodi:namedview
     id="base"
     bordercolor="#666666"
     inkscape:pageshadow="2"
     inkscape:window-y="25"
     fit-margin-left="0"
     pagecolor="#ffffff"
     fit-margin-top="0"
     inkscape:window-maximized="1"
     inkscape:zoom="3.2536328"
     inkscape:window-x="0"
     inkscape:window-height="753"
     showgrid="false"
     borderopacity="1.0"
     inkscape:current-layer="layer1"
     inkscape:cx="40.857188"
     inkscape:cy="974.82076"
     fit-margin-right="0"
     fit-margin-bottom="0"
     inkscape:window-width="1280"
     inkscape:pageopacity="0.0"
     inkscape:document-units="px"
     showguides="true"
     inkscape:guide-bbox="true" />
  <g
     id="layer1"
     inkscape:label="Ebene 1"
     inkscape:groupmode="layer"
     transform="translate(-263.31 -563.77)">
    <path
       id="path3243"
       style="color:#000000;fill:#aaaaaa;fill-opacity:1;stroke:#c8d6c8;stroke-width:3.43219995;stroke-opacity:1"
       inkscape:connector-curvature="0"
       d="m 332.50923,565.75639 -0.1063,-6.3e-4 -3.87593,20.46324 c -6.12721,1.35688 -11.89721,3.6873 -17.09528,6.86985 l -16.7774,-12.22029 c -4.5732,3.50688 -8.74012,7.6039 -12.40608,12.04621 l 11.58906,17.12344 c -3.58189,5.40332 -6.28829,11.58169 -7.83048,18.0796 -3.6e-4,0.031 -7.9e-4,0.10198 -6.4e-4,0.10702 l -20.39783,3.09608 c -0.39064,3.04083 -0.57314,6.1848 -0.59189,9.32794 -0.0154,2.57176 0.0405,5.10953 0.27622,7.61698 l 20.35688,3.7682 c 1.40706,7.08542 4.12089,13.71082 7.92752,19.56864 l -12.21896,16.5524 c 3.44533,4.32983 7.42915,8.27706 11.72806,11.76117 l 17.23106,-11.69542 c 5.97478,3.8617 12.65396,6.58439 19.90294,7.94866 l 3.09663,20.29083 c 2.28531,0.22162 4.63023,0.24213 6.97049,0.25609 3.30385,0.0192 6.46064,-0.0867 9.65613,-0.4787 l 3.98481,-20.67759 c 6.90021,-1.67357 13.39074,-4.60961 19.03549,-8.57441 l 16.44504,12.11131 c 4.30517,-3.61868 8.24709,-7.78414 11.65738,-12.26567 l -11.90914,-17.44736 c 3.28685,-5.59899 5.57769,-11.78494 6.75972,-18.40801 l 20.29084,-3.09671 c 0.19099,-2.1143 0.23782,-4.16566 0.25071,-6.32682 0.0228,-3.75552 -0.39238,-7.44038 -0.89964,-11.05257 l -20.57025,-3.87676 c -1.57823,-5.96863 -4.19291,-11.54422 -7.51633,-16.56313 l 12.21895,-16.55241 c -3.72943,-4.61673 -7.98953,-8.88641 -12.68855,-12.51792 l -17.55435,11.9085 c -5.00698,-3.00171 -10.40049,-5.31403 -16.26369,-6.63983 l -3.09597,-20.39782 c -2.9265,-0.36199 -5.8782,-0.57136 -8.89874,-0.58937 -0.81655,-0.004 -1.65654,-0.0338 -2.46717,-0.0146 -0.39501,0.0103 -0.78577,-0.0287 -1.93725,0.0315 -1.15147,0.0602 -2.70562,0.29827 -4.27606,0.46848 z m 7.20033,51.63458 c 0.39219,-0.019 0.78322,0.004 1.17997,0.007 12.69578,0.0758 22.99778,10.50137 22.92204,23.19715 -0.0758,12.69577 -10.50073,22.89076 -23.19651,22.81504 -12.69577,-0.0758 -22.8914,-10.39374 -22.81567,-23.08952 0.0733,-12.29877 9.75981,-22.38617 21.91016,-22.92971 z"
       sodipodi:nodetypes="ccccccccccsccccccccsccccccccsccccccccsccccssssc" />
  </g>
  <metadata
     id="metadata6">
    <rdf:RDF>
      <cc:Work>
        <dc:format>image/svg+xml</dc:format>
        <dc:type
           rdf:resource="http://purl.org/dc/dcmitype/StillImage" />
        <cc:license
           rdf:resource="http://creativecommons.org/licenses/publicdomain/" />
        <dc:publisher>
          <cc:Agent
             rdf:about="http://openclipart.org/">
            <dc:title>Openclipart</dc:title>
          </cc:Agent>
        </dc:publisher>
        <dc:title>gear</dc:title>
        <dc:date>2012-05-07T08:05:23</dc:date>
        <dc:description>Tango Icon Gear / Shape</dc:description>
        <dc:source>https://openclipart.org/detail/169903/gear-by-hank0071</dc:source>
        <dc:creator>
          <cc:Agent>
            <dc:title>hank0071</dc:title>
          </cc:Agent>
        </dc:creator>
        <dc:subject>
          <rdf:Bag>
            <rdf:li>gear</rdf:li>
            <rdf:li>icon</rdf:li>
            <rdf:li>system</rdf:li>
          </rdf:Bag>
        </dc:subject>
      </cc:Work>
      <cc:License
         rdf:about="http://creativecommons.org/licenses/publicdomain/">
        <cc:permits
           rdf:resource="http://creativecommons.org/ns#Reproduction" />
        <cc:permits
           rdf:resource="http://creativecommons.org/ns#Distribution" />
        <cc:permits
           rdf:resource="http://creativecommons.org/ns#DerivativeWorks" />
      </cc:License>
    </rdf:RDF>
  </metadata>
</svg>
