<?xml version="1.0" encoding="UTF-8" standalone="no"?>
<!-- Created with Inkscape (http://www.inkscape.org/) -->

<svg
   xmlns:dc="http://purl.org/dc/elements/1.1/"
   xmlns:cc="http://creativecommons.org/ns#"
   xmlns:rdf="http://www.w3.org/1999/02/22-rdf-syntax-ns#"
   xmlns:svg="http://www.w3.org/2000/svg"
   xmlns="http://www.w3.org/2000/svg"
   xmlns:sodipodi="http://sodipodi.sourceforge.net/DTD/sodipodi-0.dtd"
   xmlns:inkscape="http://www.inkscape.org/namespaces/inkscape"
   id="svg3419"
   sodipodi:docname="gear.svg"
   version="1.1"
   inkscape:version="0.48.4 r9939"
   width="100%"
   height="100%">
  <defs
     id="defs8" />
  <sodipodi:namedview
     id="base"
     bordercolor="#666666"
     inkscape:pageshadow="2"
     inkscape:window-y="25"
     fit-margin-left="0"
     pagecolor="#ffffff"
     fit-margin-top="0"
     inkscape:window-maximized="1"
     inkscape:zoom="4"
     inkscape:window-x="0"
     inkscape:window-height="753"
     showgrid="false"
     borderopacity="1.0"
     inkscape:current-layer="layer1"
     inkscape:cx="72.561266"
     inkscape:cy="92.728741"
     fit-margin-right="0"
     fit-margin-bottom="0"
     inkscape:window-width="1280"
     inkscape:pageopacity="0.0"
     inkscape:document-units="px"
     showguides="true"
     inkscape:guide-bbox="true">
    <sodipodi:guide
       orientation="0,1"
       position="78.60547,77.500001"
       id="guide2983" />
    <sodipodi:guide
       orientation="1,0"
       position="77.500001,77.19922"
       id="guide2985" />
  </sodipodi:namedview>
  <g
     id="layer1"
     inkscape:label="Ebene 1"
     inkscape:groupmode="layer"
     transform="translate(-263.31,-3565.8566)">
    <path
       id="path3243"
       style="color:#000000;fill:#aaaaaa;fill-opacity:1;stroke:#c8d6c8;stroke-width:3.4321928;stroke-opacity:1"
       inkscape:connector-curvature="0"
       d="m 332.37167,3567.6442 -0.1063,-6e-4 -3.87592,20.4633 c -6.1272,1.3568 -11.89719,3.6873 -17.09525,6.8698 l -16.77737,-12.2203 c -4.57319,3.5069 -8.7401,7.6039 -12.40605,12.0462 l 11.58904,17.1234 c -3.58189,5.4033 -6.28828,11.5817 -7.83047,18.0796 -3.6e-4,0.031 -7.9e-4,0.1019 -6.4e-4,0.107 l -20.39779,3.0961 c -0.39064,3.0408 -0.57314,6.1848 -0.59189,9.3279 -0.0154,2.5718 0.0405,5.1095 0.27622,7.617 l 20.35684,3.7681 c 1.40706,7.0854 4.12088,13.7108 7.92751,19.5686 l -12.21894,16.5524 c 3.44532,4.3298 7.42914,8.277 11.72804,11.7611 l 17.23103,-11.6953 c 5.97476,3.8616 12.65393,6.5843 19.9029,7.9485 l 3.09662,20.2909 c 2.28531,0.2216 4.63022,0.2421 6.97048,0.2561 3.30384,0.019 6.46063,-0.087 9.65611,-0.4787 l 3.9848,-20.6776 c 6.9002,-1.6736 13.39072,-4.6096 19.03546,-8.5743 l 16.44501,12.1112 c 4.30516,-3.6187 8.24707,-7.7842 11.65735,-12.2656 l -11.90911,-17.4474 c 3.28684,-5.599 5.57768,-11.7849 6.7597,-18.408 l 20.29081,-3.0966 c 0.19099,-2.1143 0.23782,-4.1656 0.25071,-6.3268 0.0228,-3.7555 -0.39238,-7.4404 -0.89964,-11.0526 l -20.57021,-3.8767 c -1.57823,-5.9687 -4.19291,-11.5443 -7.51632,-16.5632 l 12.21893,-16.5523 c -3.72943,-4.6167 -7.98952,-8.8864 -12.68853,-12.5179 l -17.55432,11.9085 c -5.00697,-3.0017 -10.40047,-5.314 -16.26366,-6.6398 l -3.09596,-20.3978 c -2.92649,-0.362 -5.87819,-0.5714 -8.89872,-0.5894 -0.81655,0 -1.65654,-0.034 -2.46717,-0.015 -0.39501,0.01 -0.78577,-0.029 -1.93724,0.032 -1.15147,0.06 -2.70562,0.2983 -4.27606,0.4685 z m 30.15323,75.3374 c -0.0758,12.6956 -10.6676,21.7525 -21.92584,21.7371 -12.38347,-0.017 -21.81007,-9.7914 -21.85938,-21.7371 -0.0508,-12.2989 9.40824,-21.7081 21.85938,-21.9634 11.32439,-0.2322 22.00158,9.2676 21.92584,21.9634 z"
       sodipodi:nodetypes="ccccccccccsccccccccsccccccccsccccccccsccccsssss" />
  </g>
  <metadata
     id="metadata6">
    <rdf:RDF>
      <cc:Work>
        <dc:format>image/svg+xml</dc:format>
        <dc:type
           rdf:resource="http://purl.org/dc/dcmitype/StillImage" />
        <cc:license
           rdf:resource="http://creativecommons.org/licenses/publicdomain/" />
        <dc:publisher>
          <cc:Agent
             rdf:about="http://openclipart.org/">
            <dc:title>Openclipart</dc:title>
          </cc:Agent>
        </dc:publisher>
        <dc:title>gear</dc:title>
        <dc:date>2012-05-07T08:05:23</dc:date>
        <dc:description>Tango Icon Gear / Shape</dc:description>
        <dc:source>https://openclipart.org/detail/169903/gear-by-hank0071</dc:source>
        <dc:creator>
          <cc:Agent>
            <dc:title>hank0071</dc:title>
          </cc:Agent>
        </dc:creator>
        <dc:subject>
          <rdf:Bag>
            <rdf:li>gear</rdf:li>
            <rdf:li>icon</rdf:li>
            <rdf:li>system</rdf:li>
          </rdf:Bag>
        </dc:subject>
      </cc:Work>
      <cc:License
         rdf:about="http://creativecommons.org/licenses/publicdomain/">
        <cc:permits
           rdf:resource="http://creativecommons.org/ns#Reproduction" />
        <cc:permits
           rdf:resource="http://creativecommons.org/ns#Distribution" />
        <cc:permits
           rdf:resource="http://creativecommons.org/ns#DerivativeWorks" />
      </cc:License>
    </rdf:RDF>
  </metadata>
</svg>
